<svg width="421" height="143" viewBox="0 0 421 143" fill="none" xmlns="http://www.w3.org/2000/svg">
<path d="M2 141C11.8524 141 20.0012 130.95 27.5799 125.797C35.8358 120.183 46.037 112.499 55.2109 108.422C66.5809 103.369 70.4269 102.674 82.3594 104.078C85.2168 104.414 89.2779 108.31 91.5295 110.111C94.4951 112.484 107.207 110.881 110.473 110.473C116.869 109.674 129.051 103.206 136.174 108.905C143.044 114.401 151.673 108.571 157.289 104.078C176.537 88.6801 187.306 97.5625 208.328 97.5625C215.388 97.5625 210.733 104.61 216.05 106.129C220.796 107.485 225.526 104.603 230.047 103.957C240.62 102.447 246.571 97.9409 256.109 93.7014C265.177 89.6713 271.906 93.2188 281.086 93.2188C296.335 93.2188 309.007 85.3801 323.438 84.5313C330.83 84.0964 338.879 69.428 345.277 65.829C357.355 59.035 365.875 46.3808 377.734 39.4045C384.942 35.1647 396.329 24.9094 401.625 18.2891C405.925 12.9146 412.862 4.04613 419 2" stroke="#1BE760" stroke-width="3" stroke-linecap="round"/>
</svg>
