<svg width="42" height="42" viewBox="0 0 42 42" fill="none" xmlns="http://www.w3.org/2000/svg">
<g clip-path="url(#clip0_207_66)">
<path d="M21 42C32.598 42 42 32.598 42 21C42 9.40202 32.598 0 21 0C9.40202 0 0 9.40202 0 21C0 32.598 9.40202 42 21 42Z" fill="#627EEA"/>
<path d="M21.6538 5.25V16.8919L31.4936 21.2887L21.6538 5.25Z" fill="white" fill-opacity="0.602"/>
<path d="M21.6536 5.25L11.8125 21.2887L21.6536 16.8919V5.25Z" fill="white"/>
<path d="M21.6538 28.833V36.7434L31.5002 23.121L21.6538 28.833Z" fill="white" fill-opacity="0.602"/>
<path d="M21.6536 36.7434V28.8317L11.8125 23.121L21.6536 36.7434Z" fill="white"/>
<path d="M21.6538 27.002L31.4936 21.2887L21.6538 16.8945V27.002Z" fill="white" fill-opacity="0.2"/>
<path d="M11.8125 21.2887L21.6536 27.002V16.8945L11.8125 21.2887Z" fill="white" fill-opacity="0.602"/>
</g>
<defs>
<clipPath id="clip0_207_66">
<rect width="42" height="42" fill="white"/>
</clipPath>
</defs>
</svg>
