<svg width="64" height="64" viewBox="0 0 64 64" fill="none" xmlns="http://www.w3.org/2000/svg">
<path d="M55.0609 7.1312L35.0735 21.9761L38.7697 13.2178L55.0609 7.1312Z" fill="#E2761B" stroke="#E2761B" stroke-linecap="round" stroke-linejoin="round"/>
<path d="M8.91904 7.1312L28.7458 22.1168L25.2304 13.2178L8.91904 7.1312ZM47.8694 41.5417L42.5462 49.6974L53.936 52.8311L57.2103 41.7225L47.8694 41.5417ZM6.80981 41.7225L10.0641 52.8311L21.4539 49.6974L16.1306 41.5417L6.80981 41.7225Z" fill="#E4761B" stroke="#E4761B" stroke-linecap="round" stroke-linejoin="round"/>
<path d="M20.8111 27.7615L17.6372 32.5625L28.9467 33.0647L28.5449 20.9115L20.8111 27.7615ZM43.1689 27.7615L35.3346 20.7709L35.0735 33.0647L46.3629 32.5625L43.1689 27.7615ZM21.4539 49.6974L28.2436 46.3829L22.3779 41.8029L21.4539 49.6974ZM35.7364 46.3829L42.5462 49.6974L41.6021 41.8029L35.7364 46.3829Z" fill="#E4761B" stroke="#E4761B" stroke-linecap="round" stroke-linejoin="round"/>
<path d="M42.5461 49.6974L35.7363 46.3829L36.2787 50.8223L36.2185 52.6905L42.5461 49.6974ZM21.4539 49.6974L27.7815 52.6905L27.7414 50.8223L28.2436 46.3829L21.4539 49.6974Z" fill="#D7C1B3" stroke="#D7C1B3" stroke-linecap="round" stroke-linejoin="round"/>
<path d="M27.8819 38.8701L22.2172 37.2028L26.2147 35.3748L27.8819 38.8701ZM36.0979 38.8701L37.7652 35.3748L41.7828 37.2028L36.0979 38.8701Z" fill="#233447" stroke="#233447" stroke-linecap="round" stroke-linejoin="round"/>
<path d="M21.4539 49.6974L22.4181 41.5417L16.1306 41.7225L21.4539 49.6974ZM41.582 41.5417L42.5462 49.6974L47.8695 41.7225L41.582 41.5417ZM46.3629 32.5625L35.0735 33.0647L36.1181 38.8701L37.7854 35.3748L41.8029 37.2028L46.3629 32.5625ZM22.2172 37.2028L26.2348 35.3748L27.882 38.8701L28.9467 33.0647L17.6372 32.5625L22.2172 37.2028Z" fill="#CD6116" stroke="#CD6116" stroke-linecap="round" stroke-linejoin="round"/>
<path d="M17.6372 32.5625L22.3779 41.8029L22.2172 37.2028L17.6372 32.5625ZM41.8029 37.2028L41.6021 41.8029L46.3629 32.5625L41.8029 37.2028ZM28.9467 33.0647L27.882 38.8701L29.2078 45.72L29.5091 36.7006L28.9467 33.0647ZM35.0735 33.0647L34.5311 36.6805L34.7722 45.72L36.1181 38.8701L35.0735 33.0647Z" fill="#E4751F" stroke="#E4751F" stroke-linecap="round" stroke-linejoin="round"/>
<path d="M36.118 38.8701L34.7721 45.72L35.7363 46.3829L41.602 41.8029L41.8029 37.2028L36.118 38.8701ZM22.2172 37.2028L22.3779 41.8029L28.2435 46.3829L29.2077 45.72L27.8819 38.8701L22.2172 37.2028Z" fill="#F6851B" stroke="#F6851B" stroke-linecap="round" stroke-linejoin="round"/>
<path d="M36.2185 52.6905L36.2787 50.8223L35.7765 50.3804H28.2034L27.7414 50.8223L27.7815 52.6905L21.4539 49.6974L23.6635 51.5053L28.1431 54.619H35.8368L40.3365 51.5053L42.5461 49.6974L36.2185 52.6905Z" fill="#C0AD9E" stroke="#C0AD9E" stroke-linecap="round" stroke-linejoin="round"/>
<path d="M35.7363 46.3829L34.7721 45.72H29.2077L28.2435 46.3829L27.7413 50.8223L28.2034 50.3804H35.7765L36.2787 50.8223L35.7363 46.3829Z" fill="#161616" stroke="#161616" stroke-linecap="round" stroke-linejoin="round"/>
<path d="M55.9046 22.9404L57.612 14.7445L55.0609 7.1312L35.7363 21.4739L43.1688 27.7615L53.6748 30.8349L56.005 28.123L55.0006 27.3999L56.6076 25.9335L55.3622 24.9692L56.9692 23.7439L55.9046 22.9404ZM6.38794 14.7445L8.09541 22.9404L7.01066 23.7439L8.61769 24.9692L7.39233 25.9335L8.99936 27.3999L7.99497 28.123L10.3051 30.8349L20.811 27.7615L28.2436 21.4739L8.91901 7.1312L6.38794 14.7445Z" fill="#763D16" stroke="#763D16" stroke-linecap="round" stroke-linejoin="round"/>
<path d="M53.6749 30.8349L43.1689 27.7615L46.3629 32.5625L41.602 41.8029L47.8694 41.7225H57.2103L53.6749 30.8349ZM20.8111 27.7615L10.3051 30.8349L6.80981 41.7225H16.1306L22.3779 41.8029L17.6372 32.5625L20.8111 27.7615ZM35.0735 33.0647L35.7364 21.4739L38.7897 13.2178H25.2304L28.2436 21.4739L28.9467 33.0647L29.1877 36.7207L29.2078 45.72H34.7722L34.8123 36.7207L35.0735 33.0647Z" fill="#F6851B" stroke="#F6851B" stroke-linecap="round" stroke-linejoin="round"/>
</svg>
