<svg width="179" height="57" viewBox="0 0 179 57" fill="none" xmlns="http://www.w3.org/2000/svg">
<path d="M78.1182 38.2637C77.2393 38.2637 76.4922 38.1172 75.877 37.8242C75.2715 37.5312 74.7734 37.165 74.3828 36.7256C74.002 36.2764 73.7041 35.8271 73.4893 35.3779H73.2842V38H68.8164V16.1738H73.3574V24.3916H73.4893C73.6943 23.9424 73.9824 23.4883 74.3535 23.0293C74.7344 22.5703 75.2324 22.1895 75.8477 21.8867C76.4727 21.5742 77.2393 21.418 78.1475 21.418C79.3486 21.418 80.4473 21.7305 81.4434 22.3555C82.4492 22.9707 83.2549 23.9033 83.8604 25.1533C84.4658 26.4033 84.7686 27.9658 84.7686 29.8408C84.7686 31.6572 84.4756 33.1953 83.8896 34.4551C83.3037 35.7051 82.5078 36.6523 81.502 37.2969C80.4961 37.9414 79.3682 38.2637 78.1182 38.2637ZM73.2549 29.8262C73.2549 31.2715 73.5527 32.4385 74.1484 33.3271C74.7539 34.2158 75.6035 34.6602 76.6973 34.6602C77.8105 34.6602 78.6602 34.2109 79.2461 33.3125C79.832 32.4043 80.125 31.2422 80.125 29.8262C80.125 28.4004 79.832 27.2432 79.2461 26.3545C78.6699 25.4658 77.8203 25.0215 76.6973 25.0215C75.6035 25.0215 74.7539 25.4561 74.1484 26.3252C73.5527 27.1943 73.2549 28.3613 73.2549 29.8262ZM87.7422 38V21.623H92.2832V38H87.7422ZM90.0127 19.5283C89.3389 19.5283 88.7578 19.3037 88.2695 18.8545C87.791 18.4053 87.5518 17.8633 87.5518 17.2285C87.5518 16.5938 87.791 16.0566 88.2695 15.6172C88.7578 15.168 89.3389 14.9434 90.0127 14.9434C90.6865 14.9434 91.2627 15.168 91.7412 15.6172C92.2295 16.0566 92.4736 16.5938 92.4736 17.2285C92.4736 17.8633 92.2295 18.4053 91.7412 18.8545C91.2627 19.3037 90.6865 19.5283 90.0127 19.5283ZM104.617 21.623V25.0508H101.512V32.9609C101.512 34.0254 102.029 34.5576 103.064 34.5576C103.24 34.5576 103.431 34.543 103.636 34.5137C103.851 34.4844 104.036 34.4502 104.192 34.4111L104.91 37.8096C103.943 38.0928 103.006 38.2344 102.098 38.2344C100.477 38.2344 99.2168 37.8242 98.3184 37.0039C97.4297 36.1836 96.9854 35.0361 96.9854 33.5615V25.0508H94.7588V21.623H96.9854V17.7266H101.512V21.623H104.617ZM112.117 28.5371V38H107.576V21.623H112.044V24.5381H112.205C112.576 23.5811 113.167 22.8242 113.978 22.2676C114.788 21.7012 115.799 21.418 117.01 21.418C118.719 21.418 120.086 21.9697 121.111 23.0732C122.146 24.167 122.664 25.6709 122.664 27.585V38H118.123V28.3906C118.123 27.3848 117.864 26.5986 117.347 26.0322C116.839 25.4658 116.131 25.1826 115.223 25.1826C114.305 25.1826 113.558 25.4805 112.981 26.0762C112.405 26.6621 112.117 27.4824 112.117 28.5371ZM133.753 38.3223C132.073 38.3223 130.628 37.9805 129.417 37.2969C128.206 36.6133 127.273 35.6416 126.619 34.3818C125.965 33.1123 125.638 31.6133 125.638 29.8848C125.638 28.2051 125.96 26.7305 126.604 25.4609C127.259 24.1914 128.177 23.2002 129.358 22.4873C130.54 21.7744 131.932 21.418 133.533 21.418C134.979 21.418 136.282 21.7256 137.444 22.3408C138.616 22.9561 139.544 23.8789 140.228 25.1094C140.921 26.3398 141.268 27.8828 141.268 29.7383V30.9688H130.105C130.154 32.209 130.516 33.1807 131.189 33.8838C131.863 34.5869 132.742 34.9385 133.826 34.9385C134.578 34.9385 135.223 34.7773 135.76 34.4551C136.307 34.1328 136.697 33.6641 136.932 33.0488L141.121 33.3271C140.799 34.8311 139.993 36.042 138.704 36.96C137.425 37.8682 135.774 38.3223 133.753 38.3223ZM130.135 28.1709H136.917C136.81 27.1357 136.478 26.3154 135.921 25.71C135.364 25.1045 134.583 24.8018 133.577 24.8018C132.562 24.8018 131.756 25.1191 131.16 25.7539C130.574 26.3789 130.232 27.1846 130.135 28.1709ZM144.256 16.1738H148.797V27.8486H149.046L154.275 21.623H159.49L153.426 28.7275L159.783 38H154.48L150.027 31.3936L148.797 32.7852V38H144.256V16.1738ZM169.1 38.3223C167.449 38.3223 166.019 37.9707 164.808 37.2676C163.606 36.5547 162.679 35.5684 162.024 34.3086C161.38 33.0391 161.058 31.5645 161.058 29.8848C161.058 28.1953 161.38 26.7158 162.024 25.4463C162.679 24.1768 163.606 23.1904 164.808 22.4873C166.019 21.7744 167.449 21.418 169.1 21.418C170.76 21.418 172.19 21.7744 173.392 22.4873C174.603 23.1904 175.53 24.1768 176.175 25.4463C176.829 26.7158 177.156 28.1953 177.156 29.8848C177.156 31.5645 176.829 33.0391 176.175 34.3086C175.53 35.5684 174.603 36.5547 173.392 37.2676C172.19 37.9707 170.76 38.3223 169.1 38.3223ZM165.672 29.8555C165.672 31.2812 165.96 32.458 166.536 33.3857C167.112 34.3135 167.972 34.7773 169.114 34.7773C170.247 34.7773 171.102 34.3135 171.678 33.3857C172.254 32.458 172.542 31.2812 172.542 29.8555C172.542 28.4297 172.254 27.2578 171.678 26.3398C171.102 25.4219 170.247 24.9629 169.114 24.9629C167.972 24.9629 167.112 25.4219 166.536 26.3398C165.96 27.2578 165.672 28.4297 165.672 29.8555Z" fill="black"/>
<rect x="28.6208" y="52.3166" width="33.8073" height="33.8073" transform="rotate(-135.5 28.6208 52.3166)" fill="#7187F9" fill-opacity="0.99"/>
<rect x="37.4722" y="32.8744" width="27.8625" height="6.36875" transform="rotate(-135.5 37.4722 32.8744)" fill="white"/>
<rect x="42.111" y="46.0455" width="27.8625" height="6.34121" transform="rotate(-135.5 42.111 46.0455)" fill="white"/>
</svg>
