<?xml version="1.0" encoding="UTF-8"?>
<svg version="1.1" xmlns="http://www.w3.org/2000/svg" width="1536" height="1024">
<path d="M0 0 C506.88 0 1013.76 0 1536 0 C1536 337.92 1536 675.84 1536 1024 C1029.12 1024 522.24 1024 0 1024 C0 686.08 0 348.16 0 0 Z " fill="rgba(250, 250, 250, 0)" transform="translate(0,0)"/>
<path d="M0 0 C1.97226562 -0.04253906 1.97226562 -0.04253906 3.984375 -0.0859375 C13.05299901 0.44450351 21.205629 5.81372284 28.875 10.25 C29.86862549 10.81807373 30.86225098 11.38614746 31.88598633 11.97143555 C39.91850212 16.57504633 47.91391607 21.24328256 55.90136719 25.92456055 C62.5718185 29.8300161 69.27251304 33.67792697 75.99267578 37.49682617 C81.75530629 40.77182551 87.50416153 44.07063608 93.25 47.375 C94.19858887 47.91850098 95.14717773 48.46200195 96.12451172 49.02197266 C109.15635544 56.53213329 117.93932977 62.69384965 123.25 77.375 C124.0115386 80.65694947 124.37898739 83.7059221 124.39717102 87.07154846 C124.40790398 88.44418098 124.40790398 88.44418098 124.41885376 89.84454346 C124.42154266 90.83629578 124.42423157 91.8280481 124.42700195 92.84985352 C124.43357315 93.9042009 124.44014435 94.95854828 124.44691467 96.04484558 C124.46660998 99.53119992 124.47830332 103.0175112 124.48828125 106.50390625 C124.49235678 107.69792494 124.4964323 108.89194363 124.50063133 110.1221447 C124.52147823 116.44479066 124.5357847 122.76741502 124.54516602 129.09008789 C124.55621404 135.60082243 124.59059989 142.11121367 124.63033772 148.62182713 C124.65656171 153.64493926 124.66486312 158.66797039 124.66844749 163.69114494 C124.6733002 166.08995819 124.6848763 168.48876814 124.70348549 170.88751411 C124.92247505 200.99196362 124.92247505 200.99196362 114.25 212.375 C108.26694224 218.35716769 101.47714317 222.40126319 94.125 226.5 C92.373979 227.49065346 90.62492049 228.48471694 88.87583923 229.47879028 C87.6958391 230.14903988 86.51522517 230.81821 85.33399963 231.48629761 C79.99492462 234.50741226 74.71034885 237.61516676 69.4375 240.75 C60.68184851 245.9427598 51.90795592 251.10361279 43.125 256.25 C42.5192514 256.60503601 41.91350281 256.96007202 41.28939819 257.3258667 C38.38895314 259.02577172 35.48780924 260.72443524 32.58520508 262.4206543 C30.34946172 263.73074328 28.11755128 265.047394 25.8894043 266.37036133 C24.83406494 266.99450928 23.77872559 267.61865723 22.69140625 268.26171875 C21.76013916 268.81561279 20.82887207 269.36950684 19.86938477 269.94018555 C11.40307927 274.57775451 1.22337574 276.34780493 -8.18359375 273.68652344 C-15.54719756 271.18173436 -22.15135422 267.62103133 -28.875 263.75 C-30.52447632 262.81305298 -30.52447632 262.81305298 -32.20727539 261.85717773 C-39.58193842 257.65627 -46.91168707 253.38109571 -54.2109375 249.05078125 C-59.88330141 245.69353631 -65.60066486 242.41445543 -71.3125 239.125 C-72.41182861 238.48949219 -73.51115723 237.85398437 -74.64379883 237.19921875 C-80.23825746 233.96583271 -85.84296572 230.75372267 -91.47265625 227.58203125 C-93.60681236 226.36726045 -95.74092854 225.1524195 -97.875 223.9375 C-98.85154541 223.39512695 -99.82809082 222.85275391 -100.83422852 222.29394531 C-108.5374907 217.88286506 -115.83035194 212.60809924 -119.625 204.3125 C-120.17800781 203.15041016 -120.17800781 203.15041016 -120.7421875 201.96484375 C-123.46068536 194.97893645 -124.04337157 189.1020557 -124.0246582 181.64135742 C-124.02976913 180.5835054 -124.03488007 179.52565338 -124.04014587 178.43574524 C-124.05400678 174.95059496 -124.05308751 171.46564326 -124.05078125 167.98046875 C-124.05467047 165.54820177 -124.0590056 163.11593547 -124.06376648 160.68367004 C-124.07122145 155.58881427 -124.07094288 150.49402779 -124.06567383 145.39916992 C-124.05988425 138.8860979 -124.07680166 132.37331072 -124.1000185 125.86028576 C-124.11478699 120.83724828 -124.11562321 115.81427887 -124.11250877 110.79122353 C-124.11302055 108.39077504 -124.11823116 105.99032259 -124.12832069 103.58989525 C-124.14072611 100.22535351 -124.1338681 96.86135985 -124.12231445 93.49682617 C-124.12995819 92.51519501 -124.13760193 91.53356384 -124.14547729 90.52218628 C-124.05996313 79.19410733 -120.85454925 69.64297188 -112.87133789 61.44604492 C-106.99289414 56.08355586 -100.75345008 52.16344505 -93.8125 48.3125 C-92.08251117 47.33378122 -90.35253188 46.35504509 -88.62313843 45.37527466 C-86.84189447 44.36783499 -85.05811613 43.36500359 -83.27392578 42.36279297 C-77.73861653 39.24779165 -72.2470235 36.05689312 -66.75 32.875 C-64.59915105 31.63378058 -62.44810852 30.39289653 -60.296875 29.15234375 C-54.65914345 25.89987159 -49.02234029 22.64579325 -43.38574219 19.39135742 C-40.10183917 17.49626975 -36.81663655 15.60345177 -33.53125 13.7109375 C-30.08748859 11.72664307 -26.64867632 9.73466836 -23.21875 7.7265625 C-22.25146973 7.16376587 -22.25146973 7.16376587 -21.26464844 6.58959961 C-19.66914609 5.66095014 -18.07658241 4.72725626 -16.484375 3.79296875 C-11.01074444 0.95450033 -6.12705197 0.01182829 0 0 Z " fill="#0075FE" transform="translate(310.75,357.625)"/>
<path d="M0 0 C85.595 0 85.595 0 101.8125 15.59375 C111.14845673 25.8633024 114.75354146 38.59057104 114.31640625 52.296875 C113.23948963 64.900788 109.43697891 76.71234132 99.93359375 85.49609375 C95.79031226 88.71864602 91.35736532 92 86 92 C89.88410142 100.00535964 94.07436345 107.73142302 98.625 115.375 C103.49575923 123.64390246 108.26484995 131.95774027 112.875 140.375 C113.39271973 141.3139209 113.91043945 142.2528418 114.44384766 143.22021484 C114.9135498 144.08340332 115.38325195 144.9465918 115.8671875 145.8359375 C116.28081543 146.59438965 116.69444336 147.3528418 117.12060547 148.13427734 C118 150 118 150 118 152 C106.45 152 94.9 152 83 152 C79.39648438 145.19335938 75.79296875 138.38671875 72.18945312 131.58007812 C71.7981723 130.84115326 71.40689148 130.10222839 71.00375366 129.34091187 C70.21091801 127.84300737 69.41862227 126.34481697 68.62686157 124.84634399 C66.56190233 120.93996751 64.48662066 117.03961009 62.39404297 113.14794922 C61.97597885 112.36729599 61.55791473 111.58664276 61.12718201 110.78233337 C60.32607049 109.28700704 59.52172449 107.79340791 58.71376038 106.30177307 C56 101.22480412 56 101.22480412 56 99 C47.75 99 39.5 99 31 99 C31 116.49 31 133.98 31 152 C20.77 152 10.54 152 0 152 C0 101.84 0 51.68 0 0 Z " fill="#010101" transform="translate(511,422)"/>
<path d="M0 0 C5.22777575 -0.39865719 10.44658573 -0.68702017 15.68603516 -0.87890625 C17.46234158 -0.95889971 19.23760917 -1.06776844 21.01025391 -1.20703125 C35.19565425 -2.29268935 35.19565425 -2.29268935 39.68719482 1.37936401 C42.84570669 5.11186844 44.91471342 9.37580978 46.95013428 13.79364014 C48.58326674 17.22577231 50.57768378 20.41849277 52.5546875 23.66015625 C53.28174276 24.89596969 54.00572492 26.13359644 54.7265625 27.37304688 C55.08008789 27.98011475 55.43361328 28.58718262 55.79785156 29.21264648 C56.15331055 29.82309814 56.50876953 30.4335498 56.875 31.0625 C57.61437063 32.32759829 58.35395386 33.59257236 59.09375 34.85742188 C62.4237307 40.55593483 65.73097155 46.266314 69 52 C75.82635372 42.74175777 81.98142374 32.99282131 86.44444275 22.37155151 C93.95573399 4.64966902 93.95573399 4.64966902 101 0 C112.03243168 -4.06228502 125.65851764 -1.66048571 137 0 C133.58678364 6.40133546 130.080557 12.64758843 126.0625 18.6875 C120.80582965 26.70196428 115.71491021 34.81353647 110.64794922 42.94897461 C106.02987744 50.36119871 101.3773593 57.75057356 96.67993164 65.11279297 C96.22223389 65.83354004 95.76453613 66.55428711 95.29296875 67.296875 C94.8961792 67.91916992 94.49938965 68.54146484 94.09057617 69.18261719 C93.73068604 69.78235352 93.3707959 70.38208984 93 71 C92.37762451 71.98915405 92.37762451 71.98915405 91.74267578 72.99829102 C90.77598057 74.96451511 90.77598057 74.96451511 91.6081543 76.83666992 C92.00945557 77.46162354 92.41075684 78.08657715 92.82421875 78.73046875 C93.26983154 79.44146729 93.71544434 80.15246582 94.17456055 80.88500977 C94.67383057 81.64483154 95.17310059 82.40465332 95.6875 83.1875 C96.19643799 83.98921631 96.70537598 84.79093262 97.22973633 85.61694336 C98.80414823 88.0884519 100.40000003 90.54500004 102 93 C102.87593862 94.3613757 103.75099446 95.72331996 104.625 97.0859375 C106.37925996 99.81306932 108.14362393 102.53334592 109.9140625 105.25 C118.38438585 118.26221767 126.74221236 131.35187034 135 144.5 C135.62273804 145.48722046 135.62273804 145.48722046 136.25805664 146.49438477 C139 150.88089481 139 150.88089481 139 152 C107.14070975 155.15390476 107.14070975 155.15390476 99.24707031 150.31103516 C95.11754862 145.81356639 93.08232745 140.38605987 91.05859375 134.69775391 C89.4063018 130.48700067 86.93736533 126.9528426 84.375 123.25 C83.47342452 121.88312662 82.57624464 120.51334331 81.68359375 119.140625 C81.2438623 118.46708984 80.80413086 117.79355469 80.35107422 117.09960938 C78.92846281 114.88882908 77.54000783 112.65957457 76.16015625 110.421875 C75.47397217 109.3095752 75.47397217 109.3095752 74.77392578 108.17480469 C73.90217364 106.75617698 73.03446148 105.33505638 72.17138672 103.91113281 C70.16209812 100.37634182 70.16209812 100.37634182 67 98 C66.78085938 98.63679687 66.56171875 99.27359375 66.3359375 99.9296875 C64.4670783 104.22478497 62.05352908 108.12565801 59.625 112.125 C59.09696777 113.0001123 58.56893555 113.87522461 58.02490234 114.77685547 C53.83106673 121.69873213 49.54041186 128.55748844 45.18603516 135.37939453 C44.72503418 136.10239746 44.2640332 136.82540039 43.7890625 137.5703125 C43.31581543 138.27913574 42.84256836 138.98795898 42.35498047 139.71826172 C40.90554017 142.00799494 40.90554017 142.00799494 39.96142578 144.75439453 C38.62602187 147.92072958 37.62461556 149.75488739 35 152 C28.8404183 153.26536769 22.87390122 152.94314771 16.625 152.625 C14.91809836 152.57480654 13.21105577 152.52918477 11.50390625 152.48828125 C7.33244748 152.37838489 3.16776967 152.20607411 -1 152 C2.86047337 144.83006054 6.84156544 137.75111443 11 130.75 C11.556875 129.810354 12.11375 128.87070801 12.6875 127.90258789 C16.75399076 121.05797139 20.86393253 114.24026535 25 107.4375 C25.57242432 106.49374512 26.14484863 105.54999023 26.73461914 104.57763672 C29.70367051 99.70053506 32.71811027 94.85978186 35.80859375 90.05859375 C36.41767578 89.103479 37.02675781 88.14836426 37.65429688 87.16430664 C38.81622118 85.34681141 39.99016678 83.53692829 41.17773438 81.73608398 C41.69529297 80.92341064 42.21285156 80.1107373 42.74609375 79.2734375 C43.20685303 78.56622559 43.6676123 77.85901367 44.14233398 77.13037109 C45.26812653 74.33399598 44.89173647 72.84702488 44 70 C42.50205963 67.4433212 40.96807197 65.01253881 39.3125 62.5625 C38.30366775 61.03713227 37.29590718 59.51105538 36.2890625 57.984375 C35.75313477 57.17548828 35.21720703 56.36660156 34.66503906 55.53320312 C31.7893445 51.15809949 28.9909624 46.73409984 26.1875 42.3125 C25.00538953 40.45040579 23.82309563 38.58842802 22.640625 36.7265625 C22.04572266 35.78973633 21.45082031 34.85291016 20.83789062 33.88769531 C18.95496021 30.92923344 17.0643794 27.97578286 15.171875 25.0234375 C14.54643799 24.04592529 13.92100098 23.06841309 13.27661133 22.0612793 C12.08842974 20.20463712 10.89829854 18.34924052 9.70581055 16.49536133 C6.25954372 11.1030034 3.03464805 5.63455479 0 0 Z " fill="#010101" transform="translate(1185,422)"/>
<path d="M0 0 C23.76 0 47.52 0 72 0 C69.78901818 5.52745454 67.08980489 10.58977919 64.25 15.8125 C63.39849365 17.38221558 63.39849365 17.38221558 62.52978516 18.98364258 C55.33143743 32.16816066 47.72794632 45.12008946 40 58 C53.86 58.33 67.72 58.66 82 59 C78.23012364 64.02650181 75.14001941 68.00075667 70.76171875 72.24609375 C69.04314504 73.95704629 67.45575013 75.72414615 65.875 77.5625 C62.51161178 81.46616098 59.01585448 85.23436095 55.5 89 C51.52888391 93.25644234 47.60754081 97.53702981 43.8046875 101.9453125 C41.41218226 104.66924703 38.95594058 107.33343269 36.5 110 C33.46107665 113.3002483 30.43843844 116.6094941 27.5 120 C24.56155935 123.39050844 21.53883698 126.69966982 18.5 130 C14.85832111 133.95589183 11.265005 137.94561624 7.7421875 142.0078125 C4.92536738 145.22883999 2.04689854 148.39417636 -0.8203125 151.5703125 C-2.69145094 153.6560618 -4.53924831 155.75817628 -6.375 157.875 C-8.86630909 160.74202856 -11.420069 163.54307036 -14.00317383 166.32763672 C-19.2767346 172.01679896 -24.25538662 177.85511391 -29 184 C-30.39810998 179.80567005 -28.8860432 176.8072125 -27.52734375 172.77734375 C-27.25287415 171.94013794 -26.97840454 171.10293213 -26.69561768 170.24035645 C-25.78485147 167.46981592 -24.86132595 164.7037105 -23.9375 161.9375 C-23.30373014 160.01919708 -22.67068234 158.10065546 -22.03833008 156.18188477 C-20.37542173 151.14413318 -18.70119322 146.11021622 -17.02416992 141.07714844 C-15.66949835 137.00699815 -14.3214863 132.93465621 -12.97349548 128.86228943 C-11.38110887 124.05304751 -9.78500388 119.24504425 -8.1875 114.4375 C-7.72898148 113.05738235 -7.72898148 113.05738235 -7.26119995 111.64938354 C-6.39862323 109.05600441 -5.53376109 106.46340089 -4.66796875 103.87109375 C-4.41130432 103.09914673 -4.15463989 102.32719971 -3.89019775 101.53186035 C-2.11551158 96.23102317 -2.11551158 96.23102317 -1 94 C-21.295 93.505 -21.295 93.505 -42 93 C-41.14618593 87.8771156 -40.22302798 84.89726395 -38.03515625 80.34765625 C-37.73024261 79.70720871 -37.42532898 79.06676117 -37.11117554 78.40690613 C-36.44884939 77.01756406 -35.78315757 75.62982251 -35.11447144 74.24353027 C-33.29324248 70.46761455 -31.49616505 66.68019558 -29.6953125 62.89453125 C-29.31565842 62.0982431 -28.93600433 61.30195496 -28.54484558 60.48153687 C-23.69715658 50.29710569 -19.00445733 40.04077504 -14.30911255 29.78543091 C-13.22754457 27.42376776 -12.14318635 25.06340027 -11.05859375 22.703125 C-10.75174652 22.03016891 -10.44489929 21.35721283 -10.12875366 20.66386414 C-6.91739961 13.68271205 -3.44363827 6.88727655 0 0 Z " fill="hsla(210, 17%, 98%, 1.00)" transform="translate(293,422)"/>
<path d="M0 0 C1.5934021 0.00737183 1.5934021 0.00737183 3.21899414 0.01489258 C16.83347478 0.21874912 27.79334552 3.2484032 38.1875 12.3125 C40.1015625 14.72265625 40.1015625 14.72265625 41.8125 17.375 C42.38226562 18.23222656 42.95203125 19.08945312 43.5390625 19.97265625 C48.87478165 30.78317729 48.58742739 41.56642495 48.48046875 53.32421875 C48.47486307 55.14695382 48.47059758 56.96969346 48.46760559 58.79243469 C48.45623325 63.55505177 48.4268329 68.31738783 48.39349365 73.07989502 C48.36262733 77.95361532 48.34906509 82.82738169 48.33398438 87.70117188 C48.30195476 97.23842364 48.24925036 106.77539432 48.1875 116.3125 C38.6175 116.3125 29.0475 116.3125 19.1875 116.3125 C18.8575 112.3525 18.5275 108.3925 18.1875 104.3125 C17.23875 105.364375 16.29 106.41625 15.3125 107.5 C7.60141039 115.19551165 -2.6213845 118.47925285 -13.35839844 118.69238281 C-14.10637695 118.69077148 -14.85435547 118.68916016 -15.625 118.6875 C-16.41036133 118.68588867 -17.19572266 118.68427734 -18.00488281 118.68261719 C-28.89892165 118.45407092 -37.83429802 114.62589066 -45.4375 106.75 C-51.45025154 99.53736456 -53.50136947 91.5180193 -53.12890625 82.23046875 C-52.12905529 73.00962098 -48.95679083 65.72189214 -41.84375 59.625 C-31.30502497 51.98824273 -18.6067044 50.37277909 -6.0625 48.625 C-4.59490827 48.41179487 -3.12745901 48.1976067 -1.66015625 47.98242188 C4.94741712 47.02081101 11.56051363 46.12871495 18.1875 45.3125 C18.09977545 43.41583474 17.99158699 41.52011007 17.875 39.625 C17.81699219 38.56925781 17.75898437 37.51351562 17.69921875 36.42578125 C17.0005752 32.17525523 15.43432285 29.43866258 12.25 26.5625 C8.00883945 23.99209967 3.69966841 24.09267086 -1.1875 24 C-2.47398437 23.96261719 -3.76046875 23.92523438 -5.0859375 23.88671875 C-9.55697835 24.39756094 -11.46292843 25.31675641 -14.8125 28.3125 C-16.1325 30.9525 -17.4525 33.5925 -18.8125 36.3125 C-28.3825 36.3125 -37.9525 36.3125 -47.8125 36.3125 C-46.76578584 25.8453584 -44.93120191 18.21737901 -37.08984375 10.9765625 C-25.65276739 2.61945353 -13.90753121 -0.07567382 0 0 Z " fill="#010101" transform="translate(686.8125,457.6875)"/>
<path d="M0 0 C7.3502922 5.81700544 11.36438356 13.47843057 13.06640625 22.625 C13.59493274 29.05614312 13.41640515 35.53030958 13.359375 41.9765625 C13.35377099 43.8455674 13.3495047 45.71457674 13.34651184 47.58358765 C13.33512639 52.4728031 13.30571427 57.36174585 13.2723999 62.25085449 C13.24156233 67.25183423 13.2279774 72.25285858 13.21289062 77.25390625 C13.18083779 87.04440916 13.12812217 96.8346391 13.06640625 106.625 C3.82640625 106.625 -5.41359375 106.625 -14.93359375 106.625 C-14.93359375 102.335 -14.93359375 98.045 -14.93359375 93.625 C-15.59359375 93.625 -16.25359375 93.625 -16.93359375 93.625 C-17.18496094 94.2128125 -17.43632813 94.800625 -17.6953125 95.40625 C-21.06627822 101.44633999 -27.61113986 104.83337887 -33.93359375 107.0625 C-46.31023233 110.44719107 -60.70078367 110.24764441 -72.05859375 104 C-80.65636024 98.45951383 -85.68073837 91.66898022 -87.93359375 81.625 C-89.04680984 71.84640867 -87.60557695 62.97630999 -81.87109375 54.875 C-71.99152515 43.15207373 -57.25366276 41.46433155 -42.92626953 39.31738281 C-40.80397174 38.99930728 -38.68319253 38.67234243 -36.5625 38.34375 C-29.69930566 37.28884604 -22.84351995 36.31753158 -15.93359375 35.625 C-16.20161874 26.59427286 -16.20161874 26.59427286 -19.93359375 18.625 C-25.0985824 14.77657708 -29.7111829 14.23365133 -36.05859375 14.125 C-36.73946045 14.10646973 -37.42032715 14.08793945 -38.12182617 14.06884766 C-43.20709073 14.1319418 -46.15923861 15.24625716 -49.93359375 18.625 C-51.25359375 21.265 -52.57359375 23.905 -53.93359375 26.625 C-63.50359375 26.625 -73.07359375 26.625 -82.93359375 26.625 C-81.83163132 16.70733815 -79.66600842 8.65388607 -72.18359375 1.6875 C-52.38769062 -13.72181096 -20.3842512 -14.49546752 0 0 Z " fill="#010101" transform="translate(834.93359375,467.375)"/>
<path d="M0 0 C10.23 0 20.46 0 31 0 C39.76717688 27.96977886 48.48794483 55.95141832 57 84 C59.25313026 80.62030462 60.26992693 77.28525788 61.41430664 73.43920898 C61.64707809 72.67145142 61.87984955 71.90369385 62.11967468 71.1126709 C62.88779818 68.57518506 63.64892033 66.03565346 64.41015625 63.49609375 C64.94250158 61.73382615 65.4753401 59.97170746 66.00865173 58.20973206 C67.41155639 53.57083222 68.8087826 48.93024256 70.20452881 44.28918457 C72.440859 36.85617473 74.68533394 29.4256224 76.93063164 21.99531746 C77.71526182 19.39559381 78.49722311 16.79507857 79.27882385 14.19444275 C79.75751444 12.60674133 80.23626579 11.01905824 80.71508789 9.43139648 C80.93276825 8.70459183 81.15044861 7.97778717 81.37472534 7.22895813 C82.88652472 2.22695056 82.88652472 2.22695056 84 0 C94.23 0 104.46 0 115 0 C111.62462418 11.25125275 111.62462418 11.25125275 109.90966797 16.15673828 C109.33070015 17.81774063 109.33070015 17.81774063 108.74003601 19.51229858 C108.328246 20.68644318 107.91645599 21.86058777 107.4921875 23.0703125 C107.04941084 24.33788032 106.60681402 25.60551098 106.16438293 26.87319946 C104.73775188 30.95824303 103.30654776 35.04167737 101.875 39.125 C101.3810464 40.53469934 100.88711953 41.94440804 100.39321899 43.35412598 C98.38778552 49.07754472 96.38187786 54.80079581 94.3731842 60.52307129 C91.65071506 68.28007851 88.94004374 76.04096905 86.24682617 83.80819702 C84.74902274 88.12348613 83.2428308 92.43581523 81.73468018 96.74749756 C81.04920507 98.71290973 80.36722207 100.67954417 79.68914795 102.64752197 C76.30597263 112.45905006 72.70648289 122.06243665 68.296875 131.46484375 C67.75331612 132.62877655 67.75331612 132.62877655 67.19877625 133.81622314 C61.52314046 145.55629805 52.77158869 153.30735893 40.5 157.875 C30.30281828 160.60609938 18.04610071 159.97662243 8 157 C8.18175781 156.03513672 8.18175781 156.03513672 8.3671875 155.05078125 C9.72641947 147.72138422 10.89827012 140.37221374 12 133 C12.845625 133.04640625 13.69125 133.0928125 14.5625 133.140625 C21.6197823 133.36517489 27.22577775 133.37354457 33 129 C36.34490525 125.65509475 39.05184449 121.6924704 40 117 C39.49377965 113.35989002 38.23786972 110.0607314 36.953125 106.62890625 C36.59524399 105.61418243 36.23736298 104.59945862 35.86863708 103.5539856 C34.68496542 100.21495947 33.46767802 96.88925861 32.25 93.5625 C31.42064144 91.24211007 30.59360238 88.9208899 29.76879883 86.59887695 C28.05796723 81.79398953 26.33375726 76.994233 24.59814453 72.19824219 C20.93719878 62.07506782 17.3625122 51.92153945 13.77844238 41.77096558 C12.7140734 38.76260769 11.64468901 35.75608771 10.57324219 32.75024414 C0 3.07688493 0 3.07688493 0 0 Z " fill="#010101" transform="translate(1074,459)"/>
<path d="M0 0 C30.36 0 60.72 0 92 0 C92 23.8526257 92 23.8526257 83.58496094 33.38061523 C82.99489258 33.95497314 82.40482422 34.52933105 81.796875 35.12109375 C78.3677835 38.57326239 75.37301546 42.18878478 72.4375 46.0625 C68.52594082 51.0977382 64.53170646 56.06059782 60.5 61 C56.31239221 66.13437668 52.15695459 71.29094388 48.0625 76.5 C47.63839844 77.03882813 47.21429687 77.57765625 46.77734375 78.1328125 C43.45304793 82.37703924 40.23669749 86.68440334 37 91 C55.81 91 74.62 91 94 91 C94 98.92 94 106.84 94 115 C62.32 115 30.64 115 -2 115 C-2 93.86571575 -2 93.86571575 2.06274414 89.35327148 C2.64016357 88.80356689 3.21758301 88.2538623 3.8125 87.6875 C5.01718435 86.38164515 6.22028321 85.07432605 7.421875 83.765625 C8.02708984 83.13720703 8.63230469 82.50878906 9.25585938 81.86132812 C11.89761521 79.04207469 14.22014553 76.005764 16.5625 72.9375 C17.45794991 71.7890484 18.35509255 70.64191465 19.25390625 69.49609375 C19.92510498 68.63927002 19.92510498 68.63927002 20.60986328 67.76513672 C23.05414742 64.66148826 25.52789597 61.58150088 28 58.5 C37.13651716 47.10253708 46.09273875 35.57943962 55 24 C27.775 24.495 27.775 24.495 0 25 C0 16.75 0 8.5 0 0 Z " fill="#000000" transform="translate(866,459)"/>
<path d="M0 0 C30.36 0 60.72 0 92 0 C92 22 92 22 88.6875 27 C87.125812 28.33428431 85.56323489 29.66752835 84 31 C82.21942404 33.16370299 80.50260394 35.33142839 78.8125 37.5625 C77.87322325 38.77378971 76.93176321 39.98338913 75.98828125 41.19140625 C75.2605249 42.12364014 75.2605249 42.12364014 74.51806641 43.07470703 C71.88441402 46.41484578 69.19079812 49.70585896 66.5 53 C62.43204933 57.98536266 58.4060727 62.99757341 54.4375 68.0625 C48.67509177 75.41453808 42.83539453 82.70575684 37 90 C55.48 90.33 73.96 90.66 93 91 C93 98.92 93 106.84 93 115 C61.65 115 30.3 115 -2 115 C-2 93.86567441 -2 93.86567441 2.06298828 89.35302734 C2.64032715 88.80340332 3.21766602 88.2537793 3.8125 87.6875 C5.01587495 86.38294037 6.21767142 85.0769231 7.41796875 83.76953125 C8.02302246 83.14127441 8.62807617 82.51301758 9.25146484 81.86572266 C11.91452218 79.02418619 14.26066666 75.96535783 16.625 72.875 C17.52493345 71.72309168 18.42597041 70.5720446 19.328125 69.421875 C20.21892706 68.28138827 21.10955253 67.1407636 22 66 C28.39208786 57.81101482 34.85602892 49.68999879 41.4206543 41.63842773 C48.49393648 33.03181788 48.49393648 33.03181788 55 24 C27.775 24.495 27.775 24.495 0 25 C0 16.75 0 8.5 0 0 Z " fill="#010101" transform="translate(973,459)"/>
<path d="M0 0 C33.90075752 -0.66799522 33.90075752 -0.66799522 43.5625 6.25 C49.4760552 12.9217033 50.7392252 18.5561416 50.44140625 27.51953125 C49.66747449 33.62194892 47.7820956 38.66174066 42.9921875 42.6875 C37.44646085 46.28915273 32.83216075 47.14436667 26.26953125 47.09765625 C25.60417358 47.09664917 24.93881592 47.09564209 24.2532959 47.09460449 C21.77301301 47.08938106 19.29275474 47.07541978 16.8125 47.0625 C11.264375 47.041875 5.71625 47.02125 0 47 C0 31.49 0 15.98 0 0 Z " fill="#f8f8f8ff" transform="translate(542,448)"/>
<path d="M0 0 C0.40499803 9.70495284 0.39213262 17.9234369 -5.6875 25.875 C-11.47144751 31.8964526 -17.73153977 32.27664959 -25.625 32.4375 C-26.71808472 32.47121704 -26.71808472 32.47121704 -27.83325195 32.50561523 C-32.97074248 32.48279235 -35.97268396 31.440755 -40 28 C-42.74493621 23.98572913 -42.63670604 19.6936663 -42 15 C-39.45826577 9.38700359 -35.57610348 7.14426728 -30 5 C-26.11513717 4.03881465 -22.20532032 3.40957702 -18.25 2.8125 C-16.21337908 2.48669176 -14.17691388 2.15990827 -12.140625 1.83203125 C-11.24891602 1.69514893 -10.35720703 1.5582666 -9.43847656 1.41723633 C-7.03710141 1.0413124 -7.03710141 1.0413124 -4.86621094 0.44799805 C-3 0 -3 0 0 0 Z " fill="hsla(0, 0%, 97%, 1.00)" transform="translate(819,522)"/>
<path d="M0 0 C0.86862442 18.09634209 0.86862442 18.09634209 -4 25 C-10.37564902 30.61609517 -15.9939566 32.19337133 -24.375 32.25 C-25.13039063 32.270625 -25.88578125 32.29125 -26.6640625 32.3125 C-31.28107398 32.34478679 -34.27210576 32.00942735 -38 29 C-40.86541572 26.00863194 -41.47528742 23.79811978 -41.5625 19.6875 C-41.36193252 14.98669977 -40.80769522 11.79119219 -37.41015625 8.42578125 C-32.22041486 5.35567492 -26.08113407 4.5111817 -20.21728516 3.421875 C-18.10604473 3.02017675 -16.01350251 2.570031 -13.91796875 2.09375 C-4.66087963 0 -4.66087963 0 0 0 Z " fill="hsla(0, 0%, 97%, 1.00)" transform="translate(705,522)"/>
<path d="M0 0 C1 3 1 3 0 7 C13.86 7 27.72 7 42 7 C40.02 12.61 38.04 18.22 36 24 C34.71502463 20.14507389 35.5947791 18.59653164 36.9375 14.8125 C37.50791016 13.18248047 37.50791016 13.18248047 38.08984375 11.51953125 C38.39019531 10.68808594 38.69054687 9.85664062 39 9 C37.82904785 9.01047363 36.6580957 9.02094727 35.45166016 9.03173828 C31.11689295 9.06787497 26.78213911 9.09087733 22.44726562 9.10986328 C20.56931318 9.11993534 18.69137647 9.13359362 16.81347656 9.15087891 C14.1177991 9.17507453 11.42232854 9.18647083 8.7265625 9.1953125 C7.88380768 9.20563507 7.04105286 9.21595764 6.17276001 9.22659302 C4.11378753 9.22699144 2.05532065 9.12257588 0 9 C-0.66 8.34 -1.32 7.68 -2 7 C-1.6730244 4.38419521 -1.17960932 2.35921863 0 0 Z " fill="#0463FE" transform="translate(251,508)"/>
<path d="M0 0 C1.01320312 0.52400391 1.01320312 0.52400391 2.046875 1.05859375 C2.93890625 1.51363281 3.8309375 1.96867188 4.75 2.4375 C5.63171875 2.88996094 6.5134375 3.34242188 7.421875 3.80859375 C10.60657475 5.28457593 10.60657475 5.28457593 14 6 C14.99 5.34 15.98 4.68 17 4 C16.67 5.65 16.34 7.3 16 9 C17.98 9.99 19.96 10.98 22 12 C21.34 12.66 20.68 13.32 20 14 C17.22832018 12.37644058 14.45780565 10.75090291 11.6875 9.125 C10.90181641 8.66480469 10.11613281 8.20460938 9.30664062 7.73046875 C8.54931641 7.28574219 7.79199219 6.84101562 7.01171875 6.3828125 C6.31522217 5.97434082 5.61872559 5.56586914 4.90112305 5.14501953 C3.2382901 4.14351876 1.61512455 3.0767497 0 2 C0 1.34 0 0.68 0 0 Z " fill="#0A64FD" transform="translate(249,600)"/>
<path d="M0 0 C1.32 0 2.64 0 4 0 C3.25 6.625 3.25 6.625 1 10 C0 2.25 0 2.25 0 0 Z " fill="hsla(180, 4%, 96%, 0.00)" transform="translate(1130,536)"/>
<path d="M0 0 C0.99 0 1.98 0 3 0 C2.25 6.75 2.25 6.75 0 9 C0 6.03 0 3.06 0 0 Z " fill="rgba(235, 236, 235, 0)" transform="translate(777,537)"/>
<path d="M0 0 C0.66 0.33 1.32 0.66 2 1 C-1.28804981 3.91227269 -3.59885603 5.49701212 -8 6 C-5.54080489 3.3651481 -3.42227589 1.25483449 0 0 Z " fill="#0965FE" transform="translate(290,364)"/>
</svg>
