<svg width="48" height="42" viewBox="0 0 48 42" fill="none" xmlns="http://www.w3.org/2000/svg">
<g clip-path="url(#clip0_14_94)">
<path d="M39.1752 0H8.8248L0 18.8635L24 42L48 18.8635L39.1752 0Z" fill="#53AE94"/>
<path d="M27.333 15.0269V11.3659H35.7047V5.78809H12.9087V11.3659H21.2811V15.024C14.4767 15.336 9.35986 16.6841 9.35986 18.2983C9.35986 19.9126 14.4791 21.2604 21.2811 21.576V33.3022H27.3359V21.5738C34.1279 21.2604 39.2339 19.9138 39.2339 18.3007C39.2339 16.6877 34.1279 15.3413 27.3359 15.0278M27.3359 20.5807V20.5776C27.1652 20.5884 26.2875 20.6412 24.3337 20.6412C22.7715 20.6412 21.6723 20.5968 21.2857 20.5766V20.5817C15.2725 20.3153 10.7855 19.2684 10.7855 18.0158C10.7855 16.7633 15.2735 15.7178 21.284 15.4512V19.5386C21.6779 19.5658 22.8039 19.6322 24.3582 19.6322C26.2251 19.6322 27.1638 19.5545 27.3359 19.5386V15.4512C33.3359 15.7183 37.8126 16.7662 37.8126 18.0144C37.8126 19.2626 33.3337 20.311 27.3359 20.5781" fill="white"/>
</g>
<defs>
<clipPath id="clip0_14_94">
<rect width="48" height="42" fill="white"/>
</clipPath>
</defs>
</svg>
