<svg width="42" height="42" viewBox="0 0 42 42" fill="none" xmlns="http://www.w3.org/2000/svg">
<g clip-path="url(#clip0_14_303)">
<path d="M21 0C32.597 0 42 9.40296 42 21C42 32.597 32.597 42 21 42C9.40296 42 0 32.597 0 21C0 9.40296 9.40296 0 21 0Z" fill="#F0B90B"/>
<path d="M6.72021 21.0067L10.2869 17.4401L13.8535 21.0067L10.2869 24.5733L6.72021 21.0067ZM31.7136 17.4165L17.4168 31.7133L20.9834 35.28L35.2802 20.9832L31.7136 17.4165ZM12.0693 26.3558L26.3661 12.059L29.9328 15.6257L15.636 29.9225L12.0693 26.3558ZM12.0626 15.666L21.0086 6.71997L24.5753 10.2866L15.6293 19.2326L12.0626 15.666Z" fill="white"/>
</g>
<defs>
<clipPath id="clip0_14_303">
<rect width="42" height="42" fill="white"/>
</clipPath>
</defs>
</svg>
