<svg width="44" height="43" viewBox="0 0 44 43" fill="none" xmlns="http://www.w3.org/2000/svg">
<path d="M21.7076 0C33.7065 0 43.4322 9.55505 43.4322 21.3435C43.4322 33.132 33.7065 42.6786 21.7161 42.6786C9.71713 42.6786 5.62812e-06 33.1236 5.62812e-06 21.3435C-0.00854066 9.55505 9.71713 0 21.7076 0Z" fill="#8247E5"/>
<mask id="mask0_20_408" style="mask-type:luminance" maskUnits="userSpaceOnUse" x="7" y="9" width="29" height="25">
<path d="M35.7914 9.22766H7.32373V33.7366H35.7914V9.22766Z" fill="white"/>
</mask>
<g mask="url(#mask0_20_408)">
<path d="M28.8264 16.692C28.3051 16.3982 27.6385 16.3982 27.0488 16.692L22.8953 19.1102L20.075 20.6467L15.9984 23.0565C15.4771 23.3503 14.8105 23.3503 14.2208 23.0565L11.0331 21.1505C10.5117 20.8566 10.1442 20.2689 10.1442 19.614V15.9532C10.1442 15.3654 10.4434 14.7861 11.0331 14.4166L14.2208 12.5862C14.7421 12.2924 15.4088 12.2924 15.9984 12.5862L19.1862 14.4922C19.7075 14.7861 20.075 15.3738 20.075 16.0287V18.4469L22.8953 16.8348V14.3495C22.8953 13.7617 22.5962 13.1824 22.0065 12.8129L16.0754 9.37043C15.554 9.07656 14.8874 9.07656 14.2977 9.37043L8.22133 12.8885C7.63164 13.1824 7.33252 13.7701 7.33252 14.3495V21.2261C7.33252 21.8138 7.63164 22.3932 8.22133 22.7626L14.2294 26.2051C14.7507 26.499 15.4173 26.499 16.007 26.2051L20.0836 23.8625L22.9038 22.2504L26.9804 19.9078C27.5017 19.614 28.1684 19.614 28.758 19.9078L31.9458 21.7382C32.4671 22.0321 32.8346 22.6199 32.8346 23.2748V26.9356C32.8346 27.5233 32.5355 28.1027 31.9458 28.4721L28.835 30.3025C28.3136 30.5964 27.647 30.5964 27.0573 30.3025L23.861 28.4721C23.3397 28.1782 22.9722 27.5905 22.9722 26.9356V24.593L20.1519 26.2051V28.6233C20.1519 29.211 20.4511 29.7903 21.0408 30.1598L27.0488 33.6023C27.5701 33.8962 28.2367 33.8962 28.8264 33.6023L34.8345 30.1598C35.3558 29.8659 35.7233 29.2782 35.7233 28.6233V21.6711C35.7233 21.0833 35.4242 20.504 34.8345 20.1345L28.8264 16.692Z" fill="white"/>
</g>
</svg>
