<svg width="43" height="43" viewBox="0 0 43 43" fill="none" xmlns="http://www.w3.org/2000/svg">
<g clip-path="url(#clip0_14_308)">
<path d="M31.4845 3.78299C30.3655 4.88946 29.3402 6.08869 28.4289 7.36743L28.1408 7.27467C26.4789 6.738 24.7568 6.40672 23.0212 6.29408C22.4986 6.25433 20.5486 6.25433 19.912 6.29408C17.9888 6.41997 16.5146 6.70487 14.8394 7.28129C14.7724 7.3078 14.7121 7.32767 14.6518 7.34755C13.7069 6.07544 12.6549 4.88284 11.4956 3.78962C17.0574 0.973745 23.564 0.63584 29.3871 2.85541C30.0103 3.0873 30.6201 3.35895 31.2165 3.65048L31.4845 3.78299Z" fill="#F00500"/>
<path d="M41.8578 28.9138C41.0134 31.2924 39.747 33.4987 38.1052 35.4201C37.214 36.4537 36.229 37.4011 35.1702 38.2625C32.6909 40.2369 29.7961 41.6481 26.7069 42.3902C23.2894 43.2052 19.7245 43.2052 16.307 42.3902C13.2112 41.6481 10.3231 40.2369 7.84374 38.2625C6.78499 37.4011 5.79995 36.4537 4.90872 35.4201C0.184549 29.901 -1.24945 22.3213 1.15619 15.4904C1.61185 14.2249 2.18143 13.0058 2.86493 11.8463C3.17987 11.3162 3.56853 10.7199 3.75616 10.4748C4.39945 13.2112 5.19016 15.6162 5.485 16.4842C5.4649 16.5306 5.43809 16.5836 5.41129 16.63C3.84997 19.7572 3.00565 22.7719 2.80462 25.9787C2.80462 26.0184 2.79792 26.0648 2.79792 26.1045C2.74431 27.0652 2.77112 27.5224 2.93194 28.1253C3.43451 30.0136 4.98243 32.0941 7.40818 34.1347C11.3818 37.474 16.7694 39.8857 20.8503 40.164C25.1054 40.4489 31.3842 37.9908 35.5656 34.3998C36.2223 33.8233 36.8387 33.2138 37.415 32.5645C37.8305 32.0874 38.447 31.2659 38.4001 31.2659C38.3867 31.2659 38.4001 31.2526 38.4269 31.2394C38.447 31.2261 38.4671 31.2062 38.4537 31.193C38.447 31.1864 38.4604 31.1665 38.4805 31.1599C38.5006 31.1532 38.514 31.14 38.5073 31.1267C38.5006 31.1135 38.5073 31.1002 38.5341 31.0936C38.5542 31.087 38.5609 31.0671 38.5542 31.0538C38.5475 31.0406 38.5542 31.0273 38.5676 31.0273C38.581 31.0273 38.5944 31.0075 38.5944 30.9942C38.5944 30.981 38.6078 30.9611 38.6212 30.9611C38.6346 30.9611 38.648 30.9478 38.648 30.9346C38.6681 30.8816 38.7016 30.8286 38.7351 30.7822C38.8356 30.6298 39.2377 29.9209 39.2913 29.8016C39.6732 28.9469 39.9145 28.185 40.0284 27.423C40.082 27.0586 40.1155 26.3894 40.0887 26.2304C40.082 26.2039 40.082 26.1575 40.0753 26.0847C40.0619 25.9522 40.0552 25.7534 40.0418 25.5546C40.0284 25.2565 40.0016 24.8391 39.9815 24.6337C39.6934 21.6256 38.916 19.1676 37.4418 16.5637C37.3815 16.4643 37.3279 16.3649 37.2944 16.2854C37.281 16.2656 37.2743 16.2457 37.2676 16.2324C37.4753 15.6162 38.3264 13.0389 39.0032 10.0905L39.0166 10.1038L39.1171 10.2363C39.2913 10.4682 39.7537 11.1572 39.9614 11.4885C40.9062 13.0124 41.6433 14.6489 42.166 16.3583C43.3789 20.4728 43.2784 24.8589 41.8578 28.9138Z" fill="#F00500"/>
<path d="M33.1599 20.9963C33.1398 21.1023 32.8249 21.4203 32.5099 21.6522C31.5852 22.3214 29.9301 22.9442 28.2481 23.2423C27.2899 23.4146 26.3317 23.4411 26.0435 23.302C25.8559 23.2092 25.8291 23.1363 25.8961 22.8978C26.0368 22.4009 26.4925 21.8576 27.2028 21.3474C27.5646 21.089 29.0322 20.2078 29.7156 19.8368C30.8414 19.2272 31.7527 18.8628 32.3692 18.7767C32.5636 18.7502 32.7981 18.7436 32.8718 18.7767C32.9924 18.8231 33.1264 19.1742 33.18 19.5983C33.2068 19.8235 33.1934 20.8174 33.1599 20.9963Z" fill="black"/>
<path d="M17.3726 23.1893C17.3324 23.2688 17.1314 23.355 16.9036 23.3881C16.6757 23.4212 15.9789 23.4013 15.5835 23.355C14.1629 23.1694 12.6552 22.7388 11.5562 22.2087C10.9397 21.9106 10.4975 21.6124 10.1691 21.2878L9.9815 21.0956L9.9614 20.8439C9.92789 20.4066 9.93459 19.7175 9.9882 19.4724C10.0217 19.267 10.0954 19.0682 10.1959 18.8893C10.2495 18.8231 10.2495 18.8231 10.4908 18.8231C10.7856 18.8231 11.0335 18.8694 11.4356 18.9953C12.2598 19.2471 13.4861 19.8566 14.9804 20.7445C16.2134 21.4733 16.6757 21.8311 17.0309 22.3214C17.2721 22.6261 17.433 23.0568 17.3726 23.1893Z" fill="black"/>
<path d="M26.861 32.4121C26.861 32.432 26.7806 32.75 26.6801 33.1277C26.5796 33.5053 26.4992 33.8101 26.4992 33.8233C26.4255 33.83 26.3585 33.8366 26.2847 33.83H26.0703L25.7755 34.519C25.6147 34.8967 25.4672 35.2478 25.4471 35.3008L25.4069 35.3936L25.2662 35.1683L25.1255 34.9431V33.1078L25.0719 33.121C24.958 33.1475 24.1471 33.2535 23.792 33.2867C22.3245 33.4324 20.8503 33.3993 19.3895 33.1939C19.1549 33.1608 18.9539 33.1343 18.9472 33.1409C18.9405 33.1475 18.9472 33.5716 18.9606 34.095L18.9807 35.0358L18.8668 35.2081C18.8065 35.3008 18.7462 35.3803 18.7462 35.387C18.7261 35.4069 18.6591 35.3008 18.5049 34.9961C18.3374 34.678 18.2168 34.3401 18.1297 33.989L18.0828 33.7968L17.8751 33.8101L17.6673 33.83L17.6137 33.5848C17.5869 33.4523 17.5534 33.2469 17.54 33.1343L17.5199 32.9223L17.3457 32.7699C17.2452 32.6837 17.1447 32.5976 17.1245 32.5844C17.091 32.5579 17.0776 32.5115 17.0776 32.4717V32.3922L17.9153 32.3988L18.7529 32.4055L18.7797 32.4916L18.8065 32.5777L19.0946 32.591C19.2555 32.5976 19.7647 32.6109 20.2204 32.6241L21.058 32.644L21.2724 32.3127L21.4936 31.9814H21.775L21.7683 31.2924L21.7616 30.6033L21.3931 30.4443C20.207 29.9275 19.5101 29.3378 19.2487 28.6223C19.1951 28.4765 19.1951 28.4235 19.1817 27.7609C19.175 27.105 19.175 27.0454 19.2219 26.8996C19.3158 26.5683 19.5771 26.3099 19.9121 26.2238C20.0261 26.1907 20.3276 26.1907 21.909 26.1907L23.7719 26.1973L23.9796 26.2967C24.2276 26.4159 24.3415 26.5021 24.4822 26.6876C24.643 26.8996 24.6899 27.0652 24.6899 27.4694C24.6899 28.0458 24.6497 28.5428 24.5894 28.7415C24.5023 29.0132 24.3683 29.2716 24.2007 29.5035C23.8657 29.9275 23.2559 30.3515 22.6997 30.5437L22.5389 30.6033L22.5456 31.299L22.5523 31.9947L22.6997 32.0079L22.8472 32.0212L23.0482 32.3193L23.2425 32.6175H24.1404C24.6363 32.6175 25.0719 32.6241 25.1121 32.6307C25.1791 32.644 25.1925 32.6374 25.2595 32.5247L25.3399 32.4055H26.1105C26.6868 32.379 26.861 32.3922 26.861 32.4121Z" fill="black"/>
<path d="M23.3229 34.3137C23.1956 34.3865 23.1084 34.4197 23.0883 34.4064C23.0682 34.3998 22.9744 34.3203 22.8739 34.2474L22.693 34.1016L22.5054 34.3004C22.0966 34.7377 22.0832 34.7576 21.9626 34.7642C21.775 34.7841 21.7348 34.751 21.5069 34.413C21.3863 34.2408 21.2925 34.095 21.2925 34.095C21.2925 34.095 21.2054 34.0818 21.1049 34.0751L20.9172 34.0553L20.8301 34.2342L20.743 34.413L20.5889 34.3667C20.4683 34.3269 20.3477 34.2805 20.2337 34.2275L20.0327 34.1281V33.7505L21.8152 33.7571L23.5976 33.7637L23.6043 33.9426C23.611 34.1546 23.6177 34.148 23.3229 34.3137Z" fill="black"/>
<path d="M40.0749 26.2305C40.0682 26.204 40.0682 26.1576 40.0615 26.0847C38.4533 25.9124 33.8632 25.8064 29.6014 29.2849C29.6014 29.2849 28.2277 23.0568 21.7947 23.0568C15.3618 23.0568 12.9763 29.2849 12.9763 29.2849C9.37119 25.4487 4.5465 25.7269 2.80425 25.9787C2.80425 26.0185 2.79755 26.0648 2.79755 26.1046C2.74394 27.0653 2.77075 27.5225 2.93157 28.1254C3.43414 30.0137 4.98206 32.0941 7.40781 34.1348C11.3815 37.4741 16.769 39.8858 20.8499 40.1641C25.105 40.449 31.3838 37.9909 35.5652 34.3998C36.2219 33.8234 36.8384 33.2138 37.4147 32.5645C37.8301 32.0875 38.4466 31.2659 38.3997 31.2659C38.3863 31.2659 38.3997 31.2527 38.4265 31.2394C38.4466 31.2262 38.4667 31.2063 38.4533 31.193C38.4466 31.1864 38.46 31.1665 38.4801 31.1599C38.5002 31.1533 38.5136 31.14 38.5069 31.1268C38.5002 31.1135 38.5069 31.1003 38.5337 31.0936C38.5538 31.087 38.5605 31.0671 38.5538 31.0539C38.5471 31.0406 38.5538 31.0274 38.5672 31.0274C38.5806 31.0274 38.594 31.0075 38.594 30.9943C38.594 30.981 38.6074 30.9611 38.6208 30.9611C38.6342 30.9611 38.6476 30.9479 38.6476 30.9346C38.6677 30.8816 38.7012 30.8286 38.7348 30.7822C38.8353 30.6299 39.2373 29.9209 39.2909 29.8017C39.6729 28.947 39.9141 28.185 40.028 27.4231C40.0682 27.0587 40.1017 26.3895 40.0749 26.2305ZM23.3226 34.3137C23.1952 34.3866 23.1081 34.4197 23.088 34.4064C23.0679 34.3998 22.9741 34.3203 22.8736 34.2474L22.6927 34.1017L22.505 34.3004C22.0963 34.7377 22.0829 34.7576 21.9623 34.7642C21.7746 34.7841 21.7344 34.751 21.5066 34.4131C21.386 34.2408 21.2922 34.095 21.2922 34.095C21.2922 34.095 21.2051 34.0818 21.1046 34.0752L20.9169 34.0553L20.8298 34.2342L20.7427 34.4131L20.5886 34.3667C20.468 34.3269 20.3473 34.2806 20.2334 34.2275L20.0324 34.1282V33.7505L21.8148 33.7571L23.5973 33.7638L23.604 33.9426C23.6107 34.1547 23.6174 34.148 23.3226 34.3137ZM26.673 33.1211C26.5725 33.4987 26.4921 33.8035 26.4921 33.8168C26.4184 33.8234 26.3514 33.83 26.2777 33.8234H26.0633L25.7751 34.5191C25.6143 34.8967 25.4669 35.2479 25.4468 35.3009L25.4066 35.3937L25.2658 35.1684L25.1251 34.9431V33.1078L25.0715 33.1211C24.9576 33.1476 24.1468 33.2536 23.7916 33.2867C22.3241 33.4325 20.8499 33.3994 19.3891 33.194C19.1546 33.1608 18.9535 33.1343 18.9468 33.141C18.9401 33.1476 18.9468 33.5716 18.9602 34.095L18.9803 35.0359L18.8664 35.2081C18.8061 35.3009 18.7458 35.3804 18.7458 35.387C18.7257 35.4069 18.6587 35.3009 18.5046 34.9961C18.3371 34.6781 18.2164 34.3402 18.1293 33.989L18.0824 33.7969L17.8747 33.8101L17.667 33.83L17.6134 33.5849C17.5865 33.4524 17.553 33.247 17.5396 33.1343L17.5195 32.9223L17.3453 32.7699C17.2448 32.6838 17.1443 32.5977 17.1242 32.5844C17.0907 32.5579 17.0773 32.5115 17.0773 32.4718V32.3923L17.9149 32.3989L18.7525 32.4055L18.7793 32.4916L18.8061 32.5778L19.0943 32.591C19.2551 32.5977 19.7644 32.6109 20.22 32.6242L21.0576 32.644L21.2721 32.3128L21.4932 31.9815H21.7746L21.7679 31.2924L21.7612 30.6034L21.3927 30.4443C20.2066 29.9275 19.5097 29.3379 19.2484 28.6223C19.1948 28.4765 19.1948 28.4235 19.1814 27.761C19.1747 27.1051 19.1747 27.0454 19.2216 26.8997C19.3154 26.5684 19.5767 26.31 19.9118 26.2238C20.0257 26.1907 20.3272 26.1907 21.9087 26.1907L23.7715 26.1973L23.9793 26.2967C24.2272 26.416 24.3411 26.5021 24.4818 26.6876C24.6426 26.8997 24.6896 27.0653 24.6896 27.4695C24.6896 28.0459 24.6494 28.5428 24.589 28.7416C24.5019 29.0132 24.3679 29.2716 24.2004 29.5035C23.8653 29.9275 23.2556 30.3516 22.6994 30.5437L22.5385 30.6034L22.5453 31.299L22.552 31.9947L22.6994 32.008L22.8468 32.0212L23.0478 32.3194L23.2421 32.6175H24.1401C24.6359 32.6175 25.0715 32.6242 25.1117 32.6308C25.1787 32.644 25.1921 32.6374 25.2591 32.5248L25.3395 32.4055H26.1102C26.7065 32.4055 26.8808 32.4121 26.8808 32.432C26.8607 32.4254 26.7736 32.75 26.673 33.1211Z" fill="white"/>
<path d="M40.0215 25.5546C40.0081 25.2565 39.9813 24.8391 39.9612 24.6337C39.673 21.6257 38.8957 19.1676 37.4215 16.5637C37.3612 16.4644 37.3076 16.365 37.2741 16.2855C37.2607 16.2656 37.254 16.2457 37.2473 16.2325C37.455 15.6163 38.306 13.0389 38.9828 10.0905C39.9009 6.0887 40.4839 1.41104 38.7014 0.00641961C38.7014 0.00641961 35.619 -0.21885 31.4912 3.783C30.3721 4.88947 29.3469 6.0887 28.4355 7.36744L28.1474 7.27468C26.4856 6.738 24.7634 6.40673 23.0279 6.29409C22.5052 6.25434 20.5552 6.25434 19.9186 6.29409C17.9955 6.41998 16.5213 6.70488 14.846 7.2813C14.779 7.3078 14.7187 7.32768 14.6584 7.34756C13.7136 6.07545 12.6615 4.88284 11.5023 3.78962C7.20694 -0.232101 4.01059 -0.000206375 4.01059 -0.000206375C2.12092 1.45079 2.76421 6.34047 3.74255 10.4748C4.38584 13.2112 5.17655 15.6163 5.4714 16.4842C5.45129 16.5306 5.42449 16.5836 5.39769 16.63C3.83637 19.7573 2.99204 22.7719 2.79102 25.9787C4.53996 25.7269 9.35795 25.442 12.9698 29.2848C12.9698 29.2848 15.3553 23.0568 21.7882 23.0568C28.2211 23.0568 29.5948 29.2848 29.5948 29.2848C33.8566 25.8064 38.4468 25.9191 40.055 26.0847C40.0483 25.9522 40.0349 25.7534 40.0215 25.5546ZM6.73788 13.9864C6.73788 13.9864 4.23172 7.79147 4.87501 4.25341C4.98222 3.65711 5.18326 3.13369 5.4982 2.73616C5.4982 2.73616 8.3394 3.01443 12.9228 8.04987C12.9228 8.04987 12.0517 8.46728 10.8858 9.35511C10.8858 9.35511 10.8791 9.36173 10.8724 9.36173C9.60588 10.3224 7.98425 11.8463 6.73788 13.9864ZM17.3723 23.1893C17.3321 23.2688 17.131 23.355 16.9032 23.3881C16.6754 23.4212 15.9785 23.4013 15.5831 23.355C14.1625 23.1694 12.6548 22.7388 11.5559 22.2087C10.9394 21.9106 10.4971 21.6124 10.1688 21.2878L9.98114 21.0956L9.96103 20.8439C9.92753 20.4066 9.93423 19.7175 9.98784 19.4724C10.0213 19.267 10.0951 19.0682 10.1956 18.8893C10.2492 18.8231 10.2492 18.8231 10.4904 18.8231C10.7853 18.8231 11.0332 18.8694 11.4352 18.9953C12.2595 19.2471 13.4857 19.8566 14.98 20.7445C16.213 21.4733 16.6754 21.8311 17.0305 22.3214C17.2718 22.6261 17.4326 23.0568 17.3723 23.1893ZM33.1597 20.9962C33.1396 21.1023 32.8247 21.4203 32.5097 21.6522C31.585 22.3214 29.9299 22.9442 28.2479 23.2423C27.2897 23.4146 26.3315 23.4411 26.0433 23.3019C25.8557 23.2092 25.8289 23.1363 25.8959 22.8978C26.0366 22.4009 26.4923 21.8576 27.2026 21.3474C27.5644 21.089 29.0319 20.2078 29.7154 19.8368C30.8412 19.2272 31.7525 18.8628 32.369 18.7767C32.5633 18.7502 32.7979 18.7436 32.8716 18.7767C32.9922 18.8231 33.1262 19.1742 33.1798 19.5982C33.2066 19.8235 33.1932 20.8174 33.1597 20.9962ZM32.0474 9.35511L32.034 9.34848C30.9082 8.46066 30.0639 8.04324 30.0639 8.04324C34.4932 3.0078 37.2339 2.72953 37.2339 2.72953C37.5354 3.13369 37.7298 3.65049 37.837 4.24679C38.4602 7.78485 36.0411 13.9864 36.0411 13.9864C35.0293 12.2041 33.669 10.6272 32.0474 9.35511Z" fill="#FFA409"/>
<path d="M37.8438 4.24681C37.3211 4.18055 34.8484 4.1673 32.0474 9.35513L32.034 9.34851C30.9083 8.46068 30.064 8.04327 30.064 8.04327C34.4933 3.00783 37.234 2.72955 37.234 2.72955C37.5422 3.13371 37.7366 3.65051 37.8438 4.24681Z" fill="#FF9300"/>
<path d="M36.0478 13.9864C35.0293 12.1975 33.6757 10.6272 32.0474 9.35512C34.8484 4.1673 37.3143 4.18055 37.8437 4.2468C38.4669 7.79149 36.0478 13.9864 36.0478 13.9864Z" fill="#FF8300"/>
<path d="M37.9443 4.2667C37.9108 4.26008 37.8773 4.25345 37.8438 4.24683L37.9443 4.2667Z" fill="#FF8300"/>
<path d="M12.9232 8.04327C12.9232 8.04327 12.0521 8.46068 10.8861 9.34851C10.8861 9.34851 10.8794 9.35513 10.8727 9.35513C7.97119 4.16068 5.41813 4.18055 4.86865 4.24681C4.97587 3.65051 5.1769 3.12709 5.49184 2.72955C5.49854 2.72955 8.33974 3.00783 12.9232 8.04327Z" fill="#FF9300"/>
<path d="M10.8792 9.35512C9.60599 10.3225 7.98437 11.8397 6.73799 13.9864C6.73799 13.9864 4.23183 7.79149 4.87513 4.2468C5.4179 4.18055 7.97766 4.1673 10.8792 9.35512Z" fill="#FF8300"/>
<path d="M4.87528 4.24683C4.84178 4.25345 4.80157 4.26008 4.76807 4.2667L4.87528 4.24683Z" fill="#FF8300"/>
<path d="M29.2666 17.4251C29.2666 17.4251 27.1223 17.5576 27.3904 15.9012C27.6584 14.2448 29.3336 14.046 29.8027 14.1123C30.2718 14.1786 32.148 14.8411 31.813 16.2325C31.478 17.6239 31.0089 17.3588 30.7408 17.4251C30.4728 17.4913 29.2666 17.4251 29.2666 17.4251Z" fill="white"/>
<path d="M13.4522 17.4251C13.4522 17.4251 11.3079 17.5576 11.5759 15.9012C11.844 14.2448 13.5192 14.046 13.9883 14.1123C14.4573 14.1786 16.3336 14.8411 15.9985 16.2325C15.6635 17.6239 15.1944 17.3588 14.9264 17.4251C14.6584 17.4913 13.4522 17.4251 13.4522 17.4251Z" fill="white"/>
</g>
<defs>
<clipPath id="clip0_14_308">
<rect width="43" height="43" fill="white"/>
</clipPath>
</defs>
</svg>
