<svg width="45" height="45" viewBox="0 0 45 45" fill="none" xmlns="http://www.w3.org/2000/svg">
<path d="M1.65576 22.5C1.65576 34.1916 10.9881 43.669 22.4998 43.669C34.0115 43.669 43.3438 34.1916 43.3438 22.5C43.3438 10.8085 34.0115 1.33105 22.4998 1.33105C10.9881 1.33105 1.65576 10.8085 1.65576 22.5Z" fill="url(#paint0_linear_20_369)"/>
<mask id="mask0_20_369" style="mask-type:luminance" maskUnits="userSpaceOnUse" x="0" y="0" width="45" height="45">
<path d="M0 3.8147e-06H45V45H0V3.8147e-06Z" fill="white"/>
</mask>
<g mask="url(#mask0_20_369)">
<path d="M17.6411 10.4377C17.2791 10.3807 17.2638 10.3744 17.4341 10.3484C17.7609 10.2971 18.5321 10.366 19.0638 10.4939C20.3058 10.7921 21.435 11.555 22.641 12.9099L22.9615 13.2699L23.4191 13.1953C25.35 12.8825 27.3141 13.1314 28.9562 13.8971C29.4083 14.108 30.1207 14.5278 30.2093 14.6353C30.2377 14.6698 30.2903 14.8906 30.3249 15.1268C30.4474 15.9432 30.3858 16.5689 30.1394 17.0365C30.0037 17.291 29.9968 17.3712 30.0874 17.5892C30.1594 17.7628 30.3609 17.8915 30.5603 17.8908C30.9688 17.8908 31.4077 17.2242 31.6119 16.2975L31.6922 15.9298L31.8521 16.1126C32.7314 17.1174 33.4216 18.4878 33.54 19.463L33.5711 19.7175L33.423 19.4869C33.1689 19.0889 32.9141 18.8175 32.5867 18.5996C31.9968 18.2058 31.3738 18.0715 29.7226 17.9836C28.2321 17.9049 27.3874 17.7762 26.5511 17.5006C25.1271 17.0316 24.4098 16.4079 22.7185 14.1685C21.9674 13.1735 21.5035 12.623 21.0418 12.18C19.9922 11.1725 18.9607 10.6444 17.6411 10.4377Z" fill="#FF007A"/>
<path d="M30.5461 12.659C30.5835 11.9924 30.6728 11.553 30.8528 11.1508C30.9241 10.9919 30.9913 10.8618 31.0009 10.8618C31.0113 10.8618 30.9809 10.9792 30.9324 11.1227C30.8016 11.5129 30.7801 12.0452 30.8701 12.6653C30.985 13.4521 31.0501 13.566 31.8739 14.4161C32.2603 14.8148 32.7096 15.3175 32.8723 15.5334L33.1686 15.9257L32.8723 15.6452C32.5102 15.3021 31.6773 14.6334 31.4925 14.5378C31.3693 14.4738 31.3513 14.4745 31.2751 14.5511C31.2045 14.6214 31.1899 14.7276 31.1803 15.2282C31.1657 16.0087 31.0598 16.5093 30.8057 17.0099C30.6679 17.2806 30.6465 17.223 30.7704 16.9171C30.8639 16.6886 30.8736 16.5888 30.8729 15.8336C30.8708 14.3156 30.6922 13.9506 29.6454 13.3256C29.3803 13.1674 28.9441 12.9389 28.6748 12.8186C28.4055 12.6977 28.1929 12.5922 28.1999 12.5845C28.2296 12.5549 29.2508 12.8552 29.662 13.0148C30.2726 13.2524 30.3737 13.2834 30.4478 13.2546C30.4976 13.2349 30.5219 13.0886 30.5461 12.659Z" fill="#FF007A"/>
<path d="M18.345 15.2552C17.6098 14.2329 17.1542 12.6656 17.2525 11.4935L17.283 11.1314L17.4505 11.1624C17.7655 11.22 18.3069 11.4239 18.561 11.5793C19.2575 12.0061 19.5593 12.5686 19.866 14.0128C19.956 14.4354 20.0744 14.9142 20.1284 15.0767C20.2156 15.3375 20.5459 15.9464 20.8138 16.3416C21.0076 16.627 20.8789 16.762 20.4517 16.7227C19.7995 16.6636 18.9155 16.0477 18.345 15.2552Z" fill="#FF007A"/>
<path d="M29.6537 22.864C26.2157 21.4669 25.0049 20.254 25.0049 18.2072C25.0049 17.9062 25.0153 17.6601 25.0277 17.6601C25.0402 17.6601 25.1731 17.7593 25.3233 17.8809C26.0205 18.4455 26.8014 18.6867 28.9621 19.0045C30.2339 19.1915 30.9497 19.3434 31.6095 19.5642C33.7079 20.2666 35.006 21.6919 35.3161 23.6339C35.4061 24.1978 35.3528 25.2553 35.2067 25.8129C35.0918 26.2537 34.7408 27.0476 34.6473 27.0778C34.6217 27.0869 34.5961 26.9864 34.5899 26.8507C34.5539 26.1215 34.1897 25.4121 33.5763 24.8798C32.8792 24.2758 31.9432 23.7942 29.6537 22.864Z" fill="#FF007A"/>
<path d="M27.2402 23.4442C27.1973 23.1854 27.1225 22.8549 27.0748 22.7101L26.9868 22.4464L27.1495 22.6306C27.3745 22.8866 27.5531 23.2128 27.7041 23.6488C27.8197 23.9813 27.8321 24.0791 27.8315 24.6198C27.8308 25.1499 27.8162 25.261 27.7103 25.5599C27.5421 26.0317 27.3337 26.3656 26.9841 26.7249C26.3568 27.3704 25.5489 27.7276 24.3838 27.876C24.1816 27.9013 23.5911 27.9442 23.0718 27.9716C21.7641 28.0405 20.9035 28.1825 20.1302 28.4567C20.0188 28.4961 19.9198 28.52 19.9101 28.5095C19.8782 28.4778 20.4051 28.1614 20.8398 27.9498C21.4532 27.6517 22.0638 27.4892 23.4311 27.2593C24.1075 27.1454 24.8047 27.0076 24.9819 26.9527C26.6552 26.4352 27.5151 25.0986 27.2402 23.4442Z" fill="#FF007A"/>
<path d="M28.8162 26.2697C28.3592 25.2783 28.254 24.3213 28.5046 23.4291C28.5316 23.3335 28.5746 23.2554 28.6002 23.2554C28.6265 23.2554 28.7345 23.3145 28.8397 23.3855C29.0509 23.5296 29.4725 23.7701 30.5968 24.3888C32.0008 25.1616 32.8011 25.7592 33.3452 26.4427C33.8209 27.041 34.1165 27.7224 34.2584 28.5535C34.3387 29.0245 34.2916 30.1573 34.1719 30.6312C33.7946 32.126 32.9174 33.2995 31.6671 33.9851C31.4836 34.0856 31.3189 34.1679 31.3016 34.1679C31.2829 34.1686 31.35 33.997 31.4497 33.7868C31.8699 32.8995 31.9177 32.036 31.5999 31.0749C31.4054 30.4856 31.008 29.7677 30.2063 28.5535C29.2738 27.1423 29.0453 26.7668 28.8162 26.2697Z" fill="#FF007A"/>
<path d="M15.9035 31.6173C17.1794 30.5296 18.7662 29.7568 20.2124 29.5206C20.8355 29.4179 21.874 29.4587 22.4507 29.6078C23.3756 29.8461 24.2029 30.3819 24.6328 31.0189C25.0537 31.6426 25.2344 32.1861 25.4221 33.3934C25.4961 33.8708 25.5771 34.3489 25.6014 34.4572C25.7419 35.0837 26.0161 35.5843 26.3574 35.8353C26.8974 36.2347 27.8278 36.26 28.7431 35.8993C28.8981 35.8382 29.0331 35.7953 29.0428 35.8051C29.0754 35.8389 28.6143 36.1496 28.2896 36.3142C27.8521 36.5342 27.5045 36.6193 27.0421 36.6193C26.2037 36.6193 25.5079 36.1897 24.9271 35.3115C24.8128 35.1392 24.556 34.621 24.3566 34.1619C23.7432 32.75 23.4407 32.3204 22.7283 31.85C22.1094 31.4401 21.3104 31.367 20.7088 31.6644C19.9196 32.0553 19.6994 33.0735 20.2651 33.7189C20.4901 33.9756 20.9089 34.1971 21.2516 34.2392C21.8927 34.3208 22.4437 33.8286 22.4437 33.1747C22.4437 32.75 22.2817 32.5089 21.8754 32.3232C21.3201 32.0701 20.7227 32.3654 20.7254 32.8921C20.7268 33.1171 20.8237 33.2584 21.0467 33.3603C21.19 33.425 21.1934 33.4307 21.0764 33.406C20.5669 33.2999 20.4471 32.679 20.857 32.2677C21.3492 31.7734 22.3662 31.9914 22.7158 32.6657C22.8626 32.9497 22.8799 33.5136 22.7518 33.8546C22.4659 34.6175 21.6303 35.0183 20.7836 34.7996C20.2069 34.6513 19.9715 34.4903 19.2764 33.7682C18.0684 32.511 17.599 32.2677 15.8578 31.9935L15.5234 31.9407L15.9035 31.6173Z" fill="#FF007A"/>
<path d="M12.1139 28.34C12.2973 28.0116 12.1997 27.5904 11.893 27.3837C11.6023 27.189 11.1516 27.2804 11.1516 27.5342C11.1516 27.6122 11.1938 27.6685 11.29 27.7177C11.4506 27.8014 11.4624 27.8956 11.3357 28.0883C11.207 28.2823 11.218 28.4539 11.3648 28.5699C11.6023 28.7576 11.938 28.6543 12.1139 28.34ZM10.235 9.13201C14.2697 14.075 17.048 16.1147 17.3574 16.5458C17.6122 16.9008 17.516 17.2215 17.0791 17.4718C16.8368 17.611 16.337 17.7523 16.087 17.7523C15.8046 17.7523 15.707 17.6426 15.707 17.6426C15.5429 17.4851 15.4508 17.5133 14.609 16.0044C13.4396 14.1727 12.4607 12.6533 12.4344 12.6279C12.3728 12.5696 12.3735 12.571 14.4892 16.3925C14.8312 17.1891 14.5577 17.4816 14.5577 17.5948C14.5577 17.8254 14.4947 17.9471 14.213 18.2642C13.7429 18.7936 13.5331 19.3885 13.3815 20.6197C13.2112 21.9992 12.7328 22.9744 11.4077 24.6429C10.6316 25.6196 10.505 25.7989 10.309 26.1919C10.0626 26.6876 9.99473 26.9654 9.96703 27.5919C9.93796 28.2528 9.99473 28.6803 10.1955 29.3138C10.3706 29.8672 10.5534 30.2328 11.0214 30.964C11.425 31.5961 11.6576 32.0651 11.6576 32.2494C11.6576 32.3949 11.6853 32.3956 12.3112 32.2522C13.8087 31.9111 15.025 31.3107 15.7083 30.5752C16.132 30.1196 16.231 29.8679 16.2345 29.2442C16.2366 28.8357 16.2227 28.7506 16.1126 28.5158C15.9354 28.1333 15.6114 27.8154 14.8976 27.3233C13.9616 26.6778 13.5622 26.1575 13.4521 25.4431C13.3614 24.8567 13.4666 24.4426 13.9838 23.3478C14.5196 22.2151 14.6526 21.732 14.7419 20.5894C14.8 19.8511 14.8803 19.5608 15.0901 19.3266C15.3096 19.0826 15.5069 19.0004 16.049 18.9258C16.9323 18.8035 17.4952 18.5729 17.9583 18.1433C18.3592 17.7692 18.5274 17.4099 18.553 16.8685L18.5731 16.4579L18.3488 16.1942C17.5367 15.2379 9.6908 8.38037 9.64096 8.38037C9.62988 8.38037 9.89711 8.71857 10.235 9.13201Z" fill="#FF007A"/>
<path d="M20.2354 20.013C20.3807 19.8042 20.3177 19.5785 20.0699 19.4259C19.5977 19.1341 18.884 19.3753 18.884 19.8253C18.884 20.0496 19.2557 20.2936 19.5971 20.2936C19.8241 20.2936 20.135 20.1572 20.2354 20.013ZM19.1304 19.1411C18.7157 19.2698 18.3128 19.7135 18.1875 20.1789C18.1114 20.463 18.155 20.9615 18.2685 21.1148C18.4534 21.3637 18.6313 21.4291 19.1138 21.4256C20.0588 21.4193 20.8806 21.01 20.9761 20.4982C21.0544 20.0791 20.6937 19.4983 20.1966 19.2431C19.9397 19.1116 19.3949 19.0596 19.1304 19.1411Z" fill="#FF007A"/>
</g>
<defs>
<linearGradient id="paint0_linear_20_369" x1="37.2384" y1="7.53109" x2="7.30414" y2="37.0048" gradientUnits="userSpaceOnUse">
<stop stop-color="#FFA2C9"/>
<stop offset="0.717602" stop-color="white"/>
<stop offset="1" stop-color="white"/>
</linearGradient>
</defs>
</svg>
