<svg width="42" height="42" viewBox="0 0 42 42" fill="none" xmlns="http://www.w3.org/2000/svg">
<g clip-path="url(#clip0_14_292)">
<path d="M21 42C32.598 42 42 32.598 42 21C42 9.40202 32.598 0 21 0C9.40202 0 0 9.40202 0 21C0 32.598 9.40202 42 21 42Z" fill="#3E73C4"/>
<path d="M26.279 23.7878C26.279 21 24.599 20.0445 21.239 19.6455C18.8398 19.3266 18.3607 18.69 18.3607 17.5744C18.3607 16.4588 19.1614 15.7421 20.76 15.7421C22.1998 15.7421 23.0004 16.2199 23.3994 17.4156C23.441 17.5312 23.517 17.6313 23.6172 17.7024C23.7174 17.7735 23.837 17.8122 23.9599 17.8133H25.2395C25.3135 17.8152 25.387 17.8022 25.4557 17.7749C25.5244 17.7476 25.5869 17.7066 25.6393 17.6545C25.6917 17.6023 25.733 17.54 25.7606 17.4714C25.7882 17.4029 25.8016 17.3294 25.8 17.2555V17.1767C25.6436 16.3116 25.2059 15.5224 24.5549 14.9317C23.9038 14.341 23.0759 13.9818 22.1998 13.9099V11.9989C22.1998 11.68 21.9596 11.4411 21.5606 11.361H20.3597C20.0407 11.361 19.8005 11.5999 19.7205 11.9989V13.8311C17.3199 14.1488 15.8014 15.7421 15.8014 17.7345C15.8014 20.3621 17.4 21.3977 20.76 21.7967C23.0004 22.1944 23.7197 22.6735 23.7197 23.9479C23.7197 25.221 22.6001 26.0978 21.0802 26.0978C18.9999 26.0978 18.2807 25.2223 18.0405 24.0266C17.9617 23.709 17.7202 23.5489 17.48 23.5489H16.1203C16.0465 23.5471 15.9731 23.5603 15.9045 23.5877C15.836 23.6151 15.7737 23.6561 15.7214 23.7082C15.6691 23.7603 15.628 23.8225 15.6005 23.891C15.5729 23.9595 15.5595 24.0329 15.5612 24.1067V24.1855C15.8801 26.1778 17.1611 27.6111 19.8005 28.0101V29.9224C19.8005 30.24 20.0407 30.4802 20.4397 30.559H21.6407C21.9596 30.559 22.1998 30.3201 22.2799 29.9224V28.0088C24.6804 27.6111 26.279 25.9376 26.279 23.7865V23.7878Z" fill="white"/>
<path d="M16.9208 32.1523C10.6812 29.9211 7.48132 22.9911 9.80182 16.8577C11.0014 13.5109 13.6409 10.9633 16.9208 9.76762C17.2411 9.60881 17.3999 9.36994 17.3999 8.97094V7.85531C17.3999 7.53769 17.2411 7.29881 16.9208 7.21875C16.8408 7.21875 16.6806 7.21875 16.6006 7.2975C14.8004 7.85968 13.1292 8.77239 11.6832 9.9831C10.2372 11.1938 9.04497 12.6786 8.17517 14.352C7.30536 16.0253 6.77516 17.8542 6.61508 19.7333C6.45501 21.6125 6.66822 23.5047 7.24245 25.3011C8.68095 29.7636 12.121 33.1892 16.6006 34.6224C16.9208 34.7812 17.2411 34.6224 17.3198 34.3035C17.3999 34.2248 17.3999 34.1434 17.3999 33.9846V32.8689C17.3999 32.6301 17.161 32.3124 16.9208 32.1523ZM25.3996 7.29881C25.0793 7.13869 24.7591 7.29881 24.6803 7.61644C24.6003 7.6965 24.6003 7.77656 24.6003 7.93537V9.051C24.6003 9.36994 24.8391 9.68756 25.0793 9.84769C31.3189 12.0789 34.5188 19.0089 32.1983 25.1423C30.9987 28.4891 28.3593 31.0367 25.0793 32.2324C24.7591 32.3912 24.6003 32.6301 24.6003 33.0291V34.1447C24.6003 34.4623 24.7591 34.7012 25.0793 34.7812C25.1594 34.7812 25.3195 34.7812 25.3996 34.7025C27.1998 34.1403 28.871 33.2276 30.317 32.0169C31.7629 30.8062 32.9552 29.3214 33.825 27.648C34.6948 25.9747 35.225 24.1458 35.3851 22.2667C35.5451 20.3875 35.3319 18.4953 34.7577 16.6989C33.3192 12.1577 29.7991 8.73206 25.3996 7.29881Z" fill="white"/>
</g>
<defs>
<clipPath id="clip0_14_292">
<rect width="42" height="42" fill="white"/>
</clipPath>
</defs>
</svg>
